<?xml version="1.0" standalone="no"?>
<!DOCTYPE svg PUBLIC "-//W3C//DTD SVG 20010904//EN"
"http://www.w3.org/TR/2001/REC-SVG-20010904/DTD/svg10.dtd">
<svg version="1.0" xmlns="http://www.w3.org/2000/svg"
width="1611.000000pt" height="1611.000000pt" viewBox="0 0 1611.000000 1611.000000"
preserveAspectRatio="xMidYMid meet">
    <g transform="translate(0.000000,1611.000000) scale(0.100000,-0.100000)"
    fill="#000000" stroke="none">
        <path d="M1865 15739 c-270 -13 -526 -56 -720 -120 -117 -39 -296 -133 -415
        -217 -121 -86 -296 -261 -382 -382 -222 -314 -313 -635 -338 -1190 -13 -288
        -13 -11247 0 -11545 19 -452 79 -731 211 -985 83 -160 175 -286 304 -415 129
        -129 255 -221 415 -304 254 -132 533 -192 985 -211 298 -13 11976 -13 12265 0
        449 20 727 80 980 211 160 83 286 175 415 304 129 129 221 255 304 415 134
        259 192 534 212 1010 7 162 9 2182 7 5935 -3 5352 -5 5699 -21 5835 -20 166
        -55 345 -92 475 -33 117 -147 345 -232 465 -87 122 -262 297 -383 382 -105 74
        -271 164 -376 204 -191 72 -482 120 -806 134 -265 11 -12105 11 -12333 -1z
        m6585 -3044 c240 -19 337 -30 499 -56 605 -96 1197 -289 1747 -568 77 -39 150
        -77 164 -85 14 -8 87 -52 164 -96 301 -177 515 -328 863 -612 112 -91 378
        -344 530 -504 452 -476 846 -1040 1147 -1643 454 -906 715 -1910 767 -2955 13
        -245 6 -756 -12 -931 -6 -60 -14 -139 -18 -175 l-6 -65 -621 -3 c-554 -2 -623
        0 -634 14 -11 12 -9 50 10 217 28 247 38 626 21 831 -15 184 -39 398 -51 461
        -5 28 -21 111 -35 185 -113 590 -369 1208 -716 1728 -368 551 -859 1038 -1407
        1396 -520 341 -1085 579 -1687 711 -232 51 -347 69 -620 100 -193 22 -874 17
        -1080 -8 -525 -64 -1010 -195 -1485 -402 -194 -84 -257 -116 -445 -223 -486
        -276 -905 -614 -1279 -1031 -626 -698 -1057 -1619 -1181 -2522 -58 -430 -62
        -974 -10 -1319 8 -53 15 -106 15 -118 l0 -22 -640 0 -640 0 -4 23 c-8 38 -26
        300 -37 551 -12 259 -2 601 26 921 68 774 271 1575 583 2290 277 639 672 1268
        1112 1770 335 384 653 680 1035 967 531 397 1117 700 1748 905 476 153 871
        229 1422 272 172 14 551 12 755 -4z m105 -2419 c773 -85 1492 -343 2130 -764
        297 -196 486 -352 761 -626 405 -406 667 -767 918 -1266 230 -457 374 -901
        460 -1415 50 -299 61 -444 61 -820 0 -192 -3 -358 -7 -367 -7 -17 -41 -18
        -508 -18 l-500 0 -84 169 c-232 462 -479 798 -862 1171 -295 288 -620 518
        -1000 711 -269 136 -480 218 -760 294 -217 60 -311 79 -532 112 -180 27 -201
        28 -577 28 -377 0 -396 -1 -575 -28 -299 -46 -541 -105 -806 -198 -885 -310
        -1661 -939 -2165 -1759 -35 -58 -109 -193 -164 -300 l-100 -195 -507 -3 -506
        -2 -7 75 c-4 41 -5 229 -2 417 4 291 9 371 30 528 81 591 232 1088 484 1595
        270 540 641 1029 1087 1432 201 182 364 309 576 450 637 425 1368 692 2130
        778 167 18 856 19 1025 1z m-200 -3206 c635 -47 1246 -227 1756 -520 323 -185
        505 -325 785 -604 225 -225 291 -306 442 -534 84 -126 226 -395 215 -406 -3
        -3 -1581 -6 -3505 -6 -2644 0 -3498 3 -3498 12 0 6 35 79 79 163 151 291 340
        544 597 796 163 160 239 225 404 345 590 431 1297 685 2100 753 141 12 465 12
        625 1z"/>
    </g>
</svg>
