<?xml version="1.0" standalone="no"?>
<!DOCTYPE svg PUBLIC "-//W3C//DTD SVG 20010904//EN"
 "http://www.w3.org/TR/2001/REC-SVG-20010904/DTD/svg10.dtd">
<svg version="1.0" xmlns="http://www.w3.org/2000/svg"
 width="811.000000pt" height="811.000000pt" viewBox="0 0 811.000000 811.000000"
 preserveAspectRatio="xMidYMid meet">
<metadata>
Created by potrace 1.14, written by Peter Selinger 2001-2017
</metadata>
<g transform="translate(0.000000,811.000000) scale(0.100000,-0.100000)"
fill="#000000" stroke="none">
<path d="M0 4055 l0 -3635 4055 0 4055 0 0 3635 0 3635 -4055 0 -4055 0 0
-3635z m4245 1519 c323 -47 635 -179 910 -388 102 -77 289 -258 372 -361 365
-452 558 -1053 528 -1649 l-7 -145 -215 -3 -215 -3 6 44 c24 171 15 376 -24
552 -129 592 -602 1079 -1198 1235 -426 111 -907 50 -1274 -162 -434 -250
-727 -659 -814 -1139 -19 -106 -26 -355 -12 -472 l8 -63 -214 0 -214 0 -6 44
c-13 84 -7 410 9 542 75 612 378 1173 830 1537 131 106 241 177 384 248 355
176 751 240 1146 183z m37 -813 c329 -71 616 -233 847 -477 202 -213 338 -472
407 -769 24 -107 27 -141 28 -305 l1 -185 -165 0 -165 0 -46 87 c-199 376
-551 636 -973 720 -131 26 -351 28 -486 4 -420 -75 -786 -341 -991 -723 l-51
-93 -166 2 -167 3 1 175 c2 266 47 452 168 695 84 167 175 293 306 425 224
224 510 379 809 439 140 29 148 29 356 26 146 -3 213 -8 287 -24z m-46 -1070
c253 -52 472 -160 646 -320 78 -72 176 -199 218 -281 l29 -57 -487 -6 c-688
-10 -1852 -9 -1852 1 0 18 102 177 155 242 190 232 509 397 851 440 107 14
326 4 440 -19z"/>
</g>
</svg>
