<?xml version="1.0" standalone="no"?>
    <!DOCTYPE svg PUBLIC "-//W3C//DTD SVG 20010904//EN"
    "http://www.w3.org/TR/2001/REC-SVG-20010904/DTD/svg10.dtd">
    <svg version="1.0" xmlns="http://www.w3.org/2000/svg"
    width="280.000000pt" height="280.000000pt" viewBox="0 0 280.000000 280.000000"
    preserveAspectRatio="xMidYMid meet">
    <g transform="translate(0.000000,280.000000) scale(0.100000,-0.100000)"
    fill="#DFDFDF" stroke="none">
        <path d="M1771 2264 l-23 -17 5 -191 c3 -126 9 -209 19 -243 l15 -53 -46 43
        c-87 81 -185 138 -307 179 -60 20 -89 23 -214 23 -133 0 -152 -3 -225 -28
        -117 -41 -210 -100 -295 -186 -155 -158 -230 -353 -216 -563 l6 -88 -115 0
        -115 0 0 -45 0 -45 130 0 c99 0 130 -3 130 -13 0 -7 16 -45 35 -86 19 -40 35
        -73 35 -74 0 -1 -44 -2 -97 -2 l-98 0 -3 -42 -3 -43 132 0 131 0 64 -59 c35
        -33 85 -73 111 -88 l48 -28 -153 -3 -153 -3 3 -42 3 -42 1042 -3 c689 -1 1051
        1 1068 8 l27 10 -4 208 c-4 191 -7 213 -31 287 -38 113 -98 215 -174 295 l-65
        70 65 70 c76 80 136 182 174 295 24 74 27 96 31 287 l4 208 -27 10 c-16 6
        -191 10 -458 10 -384 0 -435 -2 -456 -16z m852 -119 l0 -40 -391 -3 -392 -2 0
        45 0 45 392 -2 391 -3 0 -40z m0 -182 c-17 -204 -93 -359 -234 -484 -38 -34
        -69 -70 -69 -79 0 -9 31 -45 69 -79 141 -125 217 -280 234 -483 l5 -48 -394 0
        -394 0 0 48 c1 170 109 388 246 495 40 31 54 48 54 67 0 19 -14 36 -54 67
        -137 107 -245 325 -246 496 l0 47 394 0 394 0 -5 -47z m-1193 -71 c136 -45
        279 -158 353 -279 51 -83 88 -203 94 -299 5 -73 3 -84 -19 -120 -37 -58 -78
        -166 -92 -244 -16 -81 -37 -114 -120 -182 -111 -93 -283 -157 -421 -157 -139
        0 -327 71 -433 164 -265 234 -295 645 -67 916 85 101 183 165 315 206 65 20
        91 23 200 19 92 -2 142 -9 190 -24z m570 -517 c-13 -14 -27 -25 -30 -25 -4 0
        -10 19 -14 43 -3 23 -9 53 -12 67 -6 22 -2 20 37 -17 l43 -42 -24 -26z m-253
        -762 c-3 -2 -41 -3 -86 -1 l-82 3 63 42 c35 22 72 51 83 63 l20 22 3 -62 c2
        -34 1 -64 -1 -67z m876 42 l0 -40 -391 -3 -392 -2 0 45 0 45 392 -2 391 -3 0
        -40z"/>
        <path d="M1924 1826 c-3 -8 -4 -27 -2 -43 3 -25 7 -28 46 -31 l42 -3 0 45 0
        46 -40 0 c-26 0 -43 -5 -46 -14z"/>
        <path d="M2274 1826 c-3 -8 -4 -27 -2 -43 3 -25 7 -28 46 -31 l42 -3 0 45 0
        46 -40 0 c-26 0 -43 -5 -46 -14z"/>
        <path d="M2100 1750 l0 -40 45 0 45 0 0 40 0 40 -45 0 -45 0 0 -40z"/>
        <path d="M2410 1705 l0 -45 40 0 40 0 0 45 0 45 -40 0 -40 0 0 -45z"/>
        <path d="M2012 1618 c3 -43 3 -43 43 -43 40 0 40 0 43 43 l3 42 -46 0 -46 0 3
        -42z"/>
        <path d="M2190 1614 l0 -45 43 3 c42 3 42 3 45 46 l3 42 -45 0 -46 0 0 -46z"/>
        <path d="M2147 1353 c-4 -3 -7 -24 -7 -45 l0 -38 45 0 45 0 0 45 0 45 -38 0
        c-21 0 -42 -3 -45 -7z"/>
        <path d="M2190 1095 l0 -46 43 3 c42 3 42 3 42 43 0 40 0 40 -42 43 l-43 3 0
        -46z"/>
        <path d="M1922 918 c3 -43 3 -43 46 -46 l42 -3 0 45 0 46 -46 0 -45 0 3 -42z"/>
        <path d="M2102 918 c3 -43 3 -43 43 -43 40 0 40 0 43 43 l3 42 -46 0 -46 0 3
        -42z"/>
        <path d="M2272 918 c3 -43 3 -43 46 -46 l42 -3 0 45 0 46 -46 0 -45 0 3 -42z"/>
        <path d="M2452 918 c3 -43 3 -43 43 -43 40 0 40 0 43 43 l3 42 -46 0 -46 0 3
        -42z"/>
        <path d="M1145 1833 c-161 -21 -346 -152 -422 -298 -82 -158 -85 -362 -7 -518
        74 -147 210 -256 369 -297 217 -56 439 18 581 194 85 104 124 217 124 354 0
        161 -50 283 -165 398 -127 129 -305 190 -480 167z m177 -94 c195 -41 346 -202
        379 -405 23 -140 -29 -293 -136 -400 -154 -155 -370 -188 -570 -87 -66 34
        -165 135 -198 204 -44 88 -62 197 -48 283 45 278 304 461 573 405z"/>
        <path d="M1422 1557 l-22 -32 44 -44 44 -44 31 22 c17 12 31 26 31 30 0 9 -91
        101 -99 101 -3 0 -16 -15 -29 -33z"/>
        <path d="M1202 1564 c-21 -14 -22 -23 -23 -147 l0 -132 -140 -115 c-76 -63
        -139 -118 -139 -122 0 -12 85 -98 96 -98 6 0 21 14 33 31 17 23 20 34 12 42
        -6 6 -11 14 -11 18 0 5 54 54 120 109 l121 101 -3 151 c-3 139 -5 152 -23 164
        -18 12 -24 11 -43 -2z"/>
        <path d="M1558 1333 c-27 -4 -28 -6 -28 -68 l0 -63 36 -7 c20 -3 38 -4 41 -1
        9 9 16 94 9 120 -3 14 -12 25 -19 25 -6 -1 -24 -4 -39 -6z"/>
        <path d="M1437 1052 c-20 -21 -37 -42 -37 -47 0 -6 10 -22 23 -38 l22 -27 32
        25 c18 14 41 39 53 55 l20 28 -34 21 c-18 12 -35 21 -38 21 -2 0 -21 -17 -41
        -38z"/>
        <path d="M1156 945 c-14 -52 -8 -65 32 -66 40 -1 106 2 109 5 1 1 -3 20 -8 41
        l-10 40 -59 0 c-51 1 -60 -2 -64 -20z"/>
        <path d="M90 1095 l0 -46 43 3 c42 3 42 3 42 43 0 40 0 40 -42 43 l-43 3 0
        -46z"/>
        <path d="M227 874 c-4 -4 -7 -25 -7 -46 l0 -38 46 0 45 0 -3 43 c-3 40 -4 42
        -38 45 -20 2 -39 0 -43 -4z"/>
        <path d="M392 568 c3 -43 3 -43 43 -43 40 0 40 0 43 43 l3 42 -46 0 -46 0 3
        -42z"/>
    </g>
</svg>
